<?xml version="1.0" standalone="no"?>
<!DOCTYPE svg PUBLIC "-//W3C//DTD SVG 20010904//EN"
 "http://www.w3.org/TR/2001/REC-SVG-20010904/DTD/svg10.dtd">
<svg version="1.0" xmlns="http://www.w3.org/2000/svg"
 width="501.000000pt" height="498.000000pt" viewBox="0 0 501.000000 498.000000"
 preserveAspectRatio="xMidYMid meet">

<g transform="translate(0.000000,498.000000) scale(0.100000,-0.100000)"
fill="#000000" stroke="none">
<path d="M530 4722 c0 -41 48 -690 55 -733 2 -20 16 -184 30 -365 13 -181 29
-369 35 -419 5 -49 17 -187 25 -305 9 -118 22 -287 30 -375 8 -88 24 -284 35
-435 11 -151 22 -290 25 -307 5 -30 50 -577 77 -941 l12 -153 55 -15 c60 -16
94 -26 266 -74 61 -18 151 -43 200 -56 50 -14 137 -39 195 -55 58 -16 152 -43
210 -59 58 -16 152 -42 210 -58 395 -112 506 -142 525 -142 12 0 109 25 216
56 107 31 239 68 294 84 55 16 147 42 205 59 58 16 191 55 295 85 105 30 246
71 315 91 69 20 162 47 208 59 45 13 84 25 86 27 1 2 13 128 25 279 12 151 26
320 32 375 10 111 37 419 74 860 13 160 29 333 35 385 5 52 19 212 30 355 11
143 25 298 30 345 6 47 22 218 35 380 13 162 38 455 54 650 17 195 32 372 33
393 l4 37 -1978 0 -1978 0 0 -28z m3218 -1068 c2 -212 0 -243 -14 -255 -9 -7
-53 -27 -97 -44 -45 -18 -145 -58 -222 -90 -77 -32 -162 -66 -190 -77 -27 -11
-63 -26 -80 -33 -30 -14 -268 -111 -360 -147 -27 -11 -69 -28 -92 -39 -23 -10
-48 -20 -55 -21 -7 -2 219 -5 502 -8 l515 -5 -3 -50 c-1 -27 -7 -93 -12 -145
-6 -52 -22 -232 -36 -400 -14 -168 -30 -350 -35 -405 -5 -55 -17 -199 -27
-320 l-17 -220 -130 -42 c-71 -23 -159 -50 -195 -61 -36 -11 -130 -40 -210
-65 -80 -25 -218 -69 -307 -97 l-163 -51 -167 47 c-93 26 -206 57 -253 70 -47
12 -184 50 -305 84 -121 34 -242 68 -269 75 -26 8 -51 16 -54 19 -3 3 -11 81
-18 173 -7 93 -17 206 -23 253 -6 47 -13 121 -16 165 -3 44 -8 106 -11 138
l-6 57 250 0 251 0 6 -57 c3 -32 13 -105 21 -163 7 -58 14 -117 14 -132 0 -23
6 -29 38 -37 20 -5 140 -35 266 -66 204 -51 233 -56 270 -46 22 6 93 20 156
31 193 34 371 68 374 72 2 1 10 86 20 188 18 196 31 334 41 413 l6 47 -861 0
-860 0 -10 25 c-7 19 -53 339 -63 439 -2 15 19 28 93 61 52 23 106 47 120 53
14 6 59 25 100 43 41 17 98 42 125 54 28 13 93 41 145 63 52 22 126 54 163 71
37 17 70 31 74 31 3 0 29 11 57 24 28 13 89 40 136 60 47 21 99 43 115 51 26
12 -50 14 -562 14 l-592 1 -5 33 c-5 29 -16 107 -50 357 -8 52 -12 98 -9 103
2 4 570 6 1261 5 l1257 -3 3 -241z"/>
</g>
</svg>
