<?xml version="1.0" standalone="no"?>
<!DOCTYPE svg PUBLIC "-//W3C//DTD SVG 20010904//EN"
 "http://www.w3.org/TR/2001/REC-SVG-20010904/DTD/svg10.dtd">
<svg version="1.0" xmlns="http://www.w3.org/2000/svg"
 width="512.000000pt" height="512.000000pt" viewBox="0 0 512.000000 512.000000"
 preserveAspectRatio="xMidYMid meet">

<g transform="translate(0.000000,512.000000) scale(0.100000,-0.100000)"
fill="#000000" stroke="none">
<path d="M310 5103 c-2 -44 404 -4579 410 -4586 3 -4 418 -121 922 -261 l916
-254 918 255 c505 140 921 256 923 259 6 5 410 4504 411 4567 l0 37 -2250 0
c-2136 0 -2250 -1 -2250 -17z m3665 -975 c-7 -62 -45 -487 -45 -505 0 -10
-223 -13 -1080 -13 l-1080 0 0 -22 c0 -35 40 -500 46 -525 l4 -23 1030 0 1030
0 -6 -42 c-3 -24 -38 -416 -79 -871 -40 -456 -75 -830 -77 -832 -1 -2 -263
-75 -581 -163 l-577 -160 -583 162 -582 161 -37 405 c-20 223 -37 424 -37 448
l-1 42 285 0 284 0 5 -32 c3 -18 13 -118 22 -223 9 -104 18 -192 19 -193 2 -2
142 -41 312 -87 l308 -84 309 84 c170 46 312 88 315 94 4 6 19 156 34 333 16
178 30 335 33 351 l6 27 -976 0 c-604 0 -977 4 -981 9 -4 8 -155 1653 -155
1697 0 12 223 14 1421 14 l1420 0 -6 -52z"/>
</g>
</svg>
