<?xml version="1.0" standalone="no"?>
<!DOCTYPE svg PUBLIC "-//W3C//DTD SVG 20010904//EN"
 "http://www.w3.org/TR/2001/REC-SVG-20010904/DTD/svg10.dtd">
<svg version="1.0" xmlns="http://www.w3.org/2000/svg"
 width="1000.000000pt" height="1000.000000pt" viewBox="0 0 1000.000000 1000.000000"
 preserveAspectRatio="xMidYMid meet">

<g transform="translate(0.000000,1000.000000) scale(0.100000,-0.100000)"
fill="#000000" stroke="none">
<path d="M7380 5449 c-457 -58 -832 -305 -1015 -669 -103 -205 -146 -436 -125
-685 28 -345 136 -590 360 -816 179 -181 418 -326 815 -497 538 -231 641 -286
753 -407 73 -78 102 -146 109 -261 9 -137 -33 -242 -134 -334 -72 -66 -180
-117 -301 -142 -81 -17 -120 -19 -242 -15 -80 4 -174 13 -209 22 -251 61 -457
217 -625 472 l-48 71 -156 -91 c-87 -50 -256 -148 -377 -218 -121 -70 -221
-132 -223 -138 -2 -6 18 -48 44 -93 181 -309 462 -556 794 -699 537 -232 1268
-220 1752 27 327 168 541 430 630 772 27 104 31 137 35 307 5 162 2 208 -15
310 -49 283 -161 497 -360 687 -203 194 -448 336 -962 558 -394 170 -527 244
-614 340 -79 88 -120 234 -98 350 40 216 205 340 453 340 255 0 410 -104 594
-398 3 -3 705 446 722 462 9 8 -5 37 -62 121 -252 375 -550 561 -991 620 -117
16 -396 18 -504 4z"/>
<path d="M4510 3833 c0 -980 -4 -1629 -10 -1712 -15 -194 -58 -310 -147 -393
-84 -79 -261 -120 -428 -99 -182 24 -325 137 -455 359 -36 61 -69 111 -74 111
-15 1 -756 -450 -756 -460 0 -19 60 -128 121 -218 77 -115 216 -262 328 -347
97 -73 287 -171 405 -209 404 -129 946 -99 1287 73 397 200 616 563 659 1096
6 82 10 718 10 1752 l0 1624 -470 0 -470 0 0 -1577z"/>
</g>
</svg>
