<?xml version="1.0" standalone="no"?>
<!DOCTYPE svg PUBLIC "-//W3C//DTD SVG 20010904//EN"
 "http://www.w3.org/TR/2001/REC-SVG-20010904/DTD/svg10.dtd">
<svg version="1.0" xmlns="http://www.w3.org/2000/svg"
 width="204.000000pt" height="499.000000pt" viewBox="0 0 204.000000 499.000000"
 preserveAspectRatio="xMidYMid meet">

<g transform="translate(0.000000,499.000000) scale(0.100000,-0.100000)"
fill="#000000" stroke="none">
<path d="M950 4866 c-123 -28 -216 -102 -268 -214 -24 -50 -27 -69 -27 -157 0
-87 3 -107 27 -157 37 -80 101 -145 178 -182 l65 -31 6 -140 c3 -77 11 -156
18 -175 36 -101 77 -168 150 -241 97 -96 168 -133 317 -160 181 -34 243 -66
301 -153 40 -60 68 -171 58 -233 -19 -126 -98 -231 -215 -286 -81 -38 -112
-42 -725 -97 -255 -23 -319 -37 -435 -93 -67 -32 -101 -56 -157 -114 -137
-140 -182 -307 -133 -497 26 -104 63 -168 136 -242 85 -85 177 -129 325 -154
136 -24 203 -54 262 -120 76 -84 107 -176 107 -317 0 -80 -5 -90 -48 -104 -85
-28 -168 -106 -210 -198 -23 -48 -26 -70 -26 -156 0 -87 3 -107 26 -157 53
-115 153 -192 284 -219 156 -32 335 62 409 216 26 54 29 70 30 160 0 90 -3
106 -29 158 -37 75 -109 146 -184 183 l-59 28 -6 126 c-4 89 -11 142 -26 183
-78 223 -254 368 -482 398 -150 19 -249 84 -302 199 -26 56 -30 77 -31 151 0
77 3 92 32 152 37 75 87 121 173 160 100 45 152 53 549 87 450 38 479 44 630
118 82 40 168 117 215 192 101 159 102 391 2 554 -45 73 -84 114 -151 157 -76
50 -146 76 -259 95 -168 28 -253 88 -319 221 -30 61 -32 75 -36 189 l-4 123
63 29 c113 51 197 154 219 270 37 188 -67 373 -245 435 -62 22 -144 27 -205
13z"/>
<path d="M116 3735 c-4 -14 -5 -29 -2 -33 2 -4 7 -32 10 -63 8 -67 36 -168 65
-233 51 -115 124 -212 320 -422 36 -39 81 -88 100 -109 l34 -37 76 7 c42 3 94
10 115 13 l40 7 -55 59 c-30 32 -61 66 -69 76 -8 9 -60 66 -116 126 -200 215
-242 272 -283 384 -16 44 -51 209 -51 243 0 4 -40 7 -89 7 -87 0 -89 -1 -95
-25z"/>
<path d="M1210 2281 c-25 -3 -44 -10 -42 -16 2 -5 31 -39 65 -75 34 -36 94
-101 134 -145 39 -44 95 -105 123 -135 144 -152 214 -292 229 -453 l6 -72 95
0 95 0 1 40 c0 22 -2 54 -6 70 -4 17 -13 55 -20 85 -16 70 -65 190 -104 255
-38 64 -89 126 -255 308 l-134 147 -71 -2 c-39 0 -91 -4 -116 -7z"/>
</g>
</svg>
