<?xml version="1.0" standalone="no"?>
<!DOCTYPE svg PUBLIC "-//W3C//DTD SVG 20010904//EN"
 "http://www.w3.org/TR/2001/REC-SVG-20010904/DTD/svg10.dtd">
<svg version="1.0" xmlns="http://www.w3.org/2000/svg"
 width="537.000000pt" height="512.000000pt" viewBox="0 0 537.000000 512.000000"
 preserveAspectRatio="xMidYMid meet">

<g transform="translate(0.000000,512.000000) scale(0.100000,-0.100000)"
fill="#000000" stroke="none">
<path d="M2498 5110 c-240 -28 -469 -121 -691 -280 -157 -113 -346 -335 -456
-535 -124 -226 -226 -572 -262 -884 -17 -157 -7 -533 20 -691 58 -338 168
-659 332 -967 59 -111 59 -113 44 -143 -27 -53 -37 -131 -25 -206 21 -130 101
-238 218 -292 50 -24 70 -27 157 -27 93 0 105 2 166 32 79 39 140 102 177 181
24 50 27 69 27 162 0 96 -2 110 -30 163 -39 77 -127 159 -202 187 -36 14 -87
23 -132 25 l-74 3 -45 78 c-135 239 -242 549 -288 839 -21 138 -30 492 -15
641 36 346 128 615 303 880 91 138 223 271 333 336 299 178 668 227 918 125
155 -64 321 -202 436 -364 127 -178 253 -480 287 -691 9 -53 18 -107 20 -119
3 -14 14 -24 35 -28 17 -4 91 -26 165 -50 l134 -43 0 27 c0 57 -42 309 -70
414 -153 592 -514 1022 -989 1176 -143 47 -346 68 -493 51z"/>
<path d="M2215 3537 c-109 -37 -196 -113 -243 -215 -37 -79 -38 -208 -3 -297
58 -146 233 -249 390 -231 114 13 255 108 291 196 l13 33 211 -6 c411 -10 747
-97 1115 -288 254 -131 438 -265 611 -446 162 -168 271 -334 356 -539 155
-376 131 -677 -77 -980 -59 -85 -180 -204 -268 -263 -301 -204 -730 -221
-1197 -50 l-62 22 -29 -24 c-89 -72 -232 -186 -253 -200 -23 -15 -23 -16 65
-53 392 -164 774 -210 1134 -136 352 72 687 273 881 532 302 400 286 1035 -39
1558 -111 178 -311 403 -501 562 -322 271 -757 478 -1190 567 -200 42 -489 71
-697 71 -70 0 -72 0 -92 34 -32 51 -96 105 -160 134 -67 31 -192 40 -256 19z"/>
<path d="M695 2667 c-370 -298 -597 -661 -672 -1072 -22 -121 -22 -370 0 -490
86 -473 326 -768 769 -944 219 -87 530 -128 773 -102 251 27 599 121 840 226
309 135 548 298 790 540 193 192 339 390 478 646 46 84 49 87 95 99 110 27
210 111 260 218 23 49 27 70 27 152 0 87 -3 101 -32 161 -143 291 -549 291
-686 1 -57 -121 -45 -265 33 -375 l37 -54 -19 -39 c-64 -127 -199 -318 -319
-451 -260 -289 -720 -591 -1086 -713 -239 -79 -488 -111 -718 -91 -293 25
-498 108 -667 269 -130 124 -225 290 -275 480 -22 83 -26 118 -26 237 0 118 5
155 26 237 72 272 238 524 494 749 l62 54 -42 167 c-23 92 -44 168 -47 168 -3
0 -45 -33 -95 -73z"/>
</g>
</svg>
