<?xml version="1.0" standalone="no"?>
<!DOCTYPE svg PUBLIC "-//W3C//DTD SVG 20010904//EN"
 "http://www.w3.org/TR/2001/REC-SVG-20010904/DTD/svg10.dtd">
<svg version="1.0" xmlns="http://www.w3.org/2000/svg"
 width="816.000000pt" height="816.000000pt" viewBox="0 0 816.000000 816.000000"
 preserveAspectRatio="xMidYMid meet">

<g transform="translate(0.000000,816.000000) scale(0.100000,-0.100000)"
fill="#000000" stroke="none">
<path d="M0 4080 l0 -4080 4080 0 4080 0 0 4080 0 4080 -4080 0 -4080 0 0
-4080z m6475 345 c289 -41 501 -165 696 -407 96 -119 118 -160 100 -182 -14
-17 -317 -222 -463 -314 -77 -48 -99 -58 -111 -49 -7 7 -41 48 -75 92 -100
132 -184 183 -333 204 -199 28 -367 -55 -414 -205 -27 -85 -18 -203 20 -273
61 -111 149 -167 520 -332 533 -237 777 -399 922 -612 167 -244 221 -592 143
-911 -91 -366 -396 -631 -847 -736 -197 -46 -565 -46 -775 1 -311 68 -622 242
-783 436 -72 87 -156 206 -184 260 l-21 42 28 19 c24 17 188 113 457 267 50
28 100 58 112 65 12 8 24 12 26 10 2 -3 22 -32 45 -65 89 -132 240 -270 348
-320 106 -49 208 -69 344 -69 230 -1 395 73 478 212 25 44 27 55 27 162 0 107
-2 118 -27 160 -69 118 -185 189 -613 377 -346 151 -532 262 -677 401 -130
125 -218 262 -273 425 -50 149 -58 457 -16 619 70 270 272 509 531 630 89 41
201 78 285 93 97 18 407 18 530 0z m-1819 -29 c1 0 4 -151 6 -333 l6 -333
-529 0 -529 0 -2 -1507 -3 -1508 -380 0 -380 0 -3 1508 -2 1507 -530 0 -530 0
0 253 c0 138 3 289 7 334 l6 83 446 2 c383 3 2414 -3 2417 -6z"/>
</g>
</svg>
